<?xml version="1.0" encoding="UTF-8" standalone="no"?>
<!DOCTYPE svg PUBLIC "-//W3C//DTD SVG 1.1//EN"
 "http://www.w3.org/Graphics/SVG/1.1/DTD/svg11.dtd">
<!-- Generated by graphviz version 2.43.0 (0)
 -->
<!-- Title: change_internet Pages: 1 -->
<svg width="409pt" height="918pt"
 viewBox="0.00 0.00 409.00 917.75" xmlns="http://www.w3.org/2000/svg" xmlns:xlink="http://www.w3.org/1999/xlink">
<g id="graph0" class="graph" transform="scale(1 1) rotate(0) translate(4 913.75)">
<title>change_internet</title>
<polygon fill="white" stroke="transparent" points="-4,4 -4,-913.75 405,-913.75 405,4 -4,4"/>
<text text-anchor="middle" x="200.5" y="-7.8" font-family="Times,serif" font-size="14.00">internet change process &#45;&#45; green is funds flow, black is text/code/effort</text>
<!-- net -->
<g id="node1" class="node">
<title>net</title>
<polygon fill="none" stroke="black" points="218,-59 163,-59 159,-55 159,-23 214,-23 218,-27 218,-59"/>
<polyline fill="none" stroke="black" points="214,-55 159,-55 "/>
<polyline fill="none" stroke="black" points="214,-55 214,-23 "/>
<polyline fill="none" stroke="black" points="214,-55 218,-59 "/>
<text text-anchor="middle" x="188.5" y="-37.3" font-family="Times,serif" font-size="14.00">Internet</text>
</g>
<!-- eco -->
<g id="node3" class="node">
<title>eco</title>
<ellipse fill="none" stroke="black" cx="188.5" cy="-142.38" rx="47.25" ry="47.25"/>
<text text-anchor="middle" x="188.5" y="-146.18" font-family="Times,serif" font-size="14.00">global</text>
<text text-anchor="middle" x="188.5" y="-131.18" font-family="Times,serif" font-size="14.00">economy</text>
</g>
<!-- net&#45;&gt;eco -->
<g id="edge16" class="edge">
<title>net&#45;&gt;eco</title>
<path fill="none" stroke="black" d="M188.5,-59.31C188.5,-66.58 188.5,-75.49 188.5,-84.72"/>
<polygon fill="black" stroke="black" points="185,-84.81 188.5,-94.81 192,-84.81 185,-84.81"/>
</g>
<!-- wg -->
<g id="node2" class="node">
<title>wg</title>
<ellipse fill="none" stroke="black" cx="200.5" cy="-387.75" rx="63.09" ry="18"/>
<text text-anchor="middle" x="200.5" y="-384.05" font-family="Times,serif" font-size="14.00">working group</text>
</g>
<!-- draft -->
<g id="node5" class="node">
<title>draft</title>
<polygon fill="none" stroke="black" points="221.5,-477.75 173.5,-477.75 173.5,-441.75 227.5,-441.75 227.5,-471.75 221.5,-477.75"/>
<polyline fill="none" stroke="black" points="221.5,-477.75 221.5,-471.75 "/>
<polyline fill="none" stroke="black" points="227.5,-471.75 221.5,-471.75 "/>
<text text-anchor="middle" x="200.5" y="-456.05" font-family="Times,serif" font-size="14.00">draft</text>
</g>
<!-- wg&#45;&gt;draft -->
<g id="edge3" class="edge">
<title>wg&#45;&gt;draft</title>
<path fill="none" stroke="black" d="M200.5,-406.06C200.5,-413.77 200.5,-423.04 200.5,-431.64"/>
<polygon fill="black" stroke="black" points="197,-431.65 200.5,-441.65 204,-431.65 197,-431.65"/>
</g>
<!-- eco&#45;&gt;wg -->
<g id="edge18" class="edge">
<title>eco&#45;&gt;wg</title>
<path fill="none" stroke="green" d="M179.61,-189.26C173.62,-228.13 168.46,-285.13 178.5,-333.75 180.35,-342.73 183.72,-352.1 187.26,-360.42"/>
<polygon fill="green" stroke="green" points="184.12,-361.96 191.43,-369.62 190.49,-359.07 184.12,-361.96"/>
</g>
<!-- author -->
<g id="node10" class="node">
<title>author</title>
<ellipse fill="none" stroke="black" cx="219.5" cy="-243.75" rx="33.29" ry="18"/>
<text text-anchor="middle" x="219.5" y="-240.05" font-family="Times,serif" font-size="14.00">author</text>
</g>
<!-- eco&#45;&gt;author -->
<g id="edge17" class="edge">
<title>eco&#45;&gt;author</title>
<path fill="none" stroke="green" d="M202.37,-187.83C205.38,-197.49 208.48,-207.41 211.19,-216.12"/>
<polygon fill="green" stroke="green" points="207.86,-217.2 214.18,-225.7 214.54,-215.11 207.86,-217.2"/>
</g>
<!-- editor -->
<g id="node11" class="node">
<title>editor</title>
<ellipse fill="none" stroke="black" cx="200.5" cy="-531.75" rx="31.4" ry="18"/>
<text text-anchor="middle" x="200.5" y="-528.05" font-family="Times,serif" font-size="14.00">editor</text>
</g>
<!-- eco&#45;&gt;editor -->
<g id="edge19" class="edge">
<title>eco&#45;&gt;editor</title>
<path fill="none" stroke="green" d="M222.51,-175.68C252.51,-207.81 291.5,-260.08 291.5,-314.75 291.5,-314.75 291.5,-314.75 291.5,-388.75 291.5,-438.05 252.13,-483.93 225.18,-509.56"/>
<polygon fill="green" stroke="green" points="222.59,-507.19 217.62,-516.54 227.34,-512.33 222.59,-507.19"/>
</g>
<!-- devs -->
<g id="node12" class="node">
<title>devs</title>
<ellipse fill="none" stroke="black" cx="128.5" cy="-675.75" rx="27" ry="18"/>
<text text-anchor="middle" x="128.5" y="-672.05" font-family="Times,serif" font-size="14.00">devs</text>
</g>
<!-- eco&#45;&gt;devs -->
<g id="edge20" class="edge">
<title>eco&#45;&gt;devs</title>
<path fill="none" stroke="green" d="M159.98,-180.59C137.35,-213.87 109.5,-264.95 109.5,-314.75 109.5,-314.75 109.5,-314.75 109.5,-532.75 109.5,-573.11 117.13,-619.36 122.72,-647.82"/>
<polygon fill="green" stroke="green" points="119.33,-648.69 124.75,-657.8 126.19,-647.31 119.33,-648.69"/>
</g>
<!-- sysadmins -->
<g id="node13" class="node">
<title>sysadmins</title>
<ellipse fill="none" stroke="black" cx="116.5" cy="-819.75" rx="48.19" ry="18"/>
<text text-anchor="middle" x="116.5" y="-816.05" font-family="Times,serif" font-size="14.00">sysadmins</text>
</g>
<!-- eco&#45;&gt;sysadmins -->
<g id="edge21" class="edge">
<title>eco&#45;&gt;sysadmins</title>
<path fill="none" stroke="green" d="M151.8,-172.99C117.49,-204.25 71.5,-256.93 71.5,-314.75 71.5,-314.75 71.5,-314.75 71.5,-676.75 71.5,-718.86 89.7,-764.84 102.95,-792.74"/>
<polygon fill="green" stroke="green" points="99.85,-794.37 107.39,-801.81 106.14,-791.29 99.85,-794.37"/>
</g>
<!-- netadmins -->
<g id="node14" class="node">
<title>netadmins</title>
<ellipse fill="none" stroke="black" cx="234.5" cy="-819.75" rx="47.39" ry="18"/>
<text text-anchor="middle" x="234.5" y="-816.05" font-family="Times,serif" font-size="14.00">netadmins</text>
</g>
<!-- eco&#45;&gt;netadmins -->
<g id="edge22" class="edge">
<title>eco&#45;&gt;netadmins</title>
<path fill="none" stroke="green" d="M228.53,-168.31C270.21,-197.72 329.5,-250.79 329.5,-314.75 329.5,-314.75 329.5,-314.75 329.5,-676.75 329.5,-725.83 289.82,-770.78 261.75,-796.44"/>
<polygon fill="green" stroke="green" points="259.34,-793.9 254.18,-803.15 263.99,-799.13 259.34,-793.9"/>
</g>
<!-- proposal -->
<g id="node4" class="node">
<title>proposal</title>
<polygon fill="none" stroke="black" points="245,-333.75 188,-333.75 188,-297.75 251,-297.75 251,-327.75 245,-333.75"/>
<polyline fill="none" stroke="black" points="245,-333.75 245,-327.75 "/>
<polyline fill="none" stroke="black" points="251,-327.75 245,-327.75 "/>
<text text-anchor="middle" x="219.5" y="-312.05" font-family="Times,serif" font-size="14.00">proposal</text>
</g>
<!-- proposal&#45;&gt;wg -->
<g id="edge2" class="edge">
<title>proposal&#45;&gt;wg</title>
<path fill="none" stroke="black" d="M214.8,-334.06C212.69,-341.85 210.14,-351.24 207.78,-359.92"/>
<polygon fill="black" stroke="black" points="204.38,-359.08 205.14,-369.65 211.14,-360.91 204.38,-359.08"/>
</g>
<!-- draft&#45;&gt;editor -->
<g id="edge4" class="edge">
<title>draft&#45;&gt;editor</title>
<path fill="none" stroke="black" d="M200.5,-478.06C200.5,-485.77 200.5,-495.04 200.5,-503.64"/>
<polygon fill="black" stroke="black" points="197,-503.65 200.5,-513.65 204,-503.65 197,-503.65"/>
</g>
<!-- RFC -->
<g id="node6" class="node">
<title>RFC</title>
<polygon fill="none" stroke="black" points="213.5,-621.75 165.5,-621.75 165.5,-585.75 219.5,-585.75 219.5,-615.75 213.5,-621.75"/>
<polyline fill="none" stroke="black" points="213.5,-621.75 213.5,-615.75 "/>
<polyline fill="none" stroke="black" points="219.5,-615.75 213.5,-615.75 "/>
<text text-anchor="middle" x="192.5" y="-600.05" font-family="Times,serif" font-size="14.00">RFC</text>
</g>
<!-- RFC&#45;&gt;devs -->
<g id="edge6" class="edge">
<title>RFC&#45;&gt;devs</title>
<path fill="none" stroke="black" d="M176.68,-622.06C168.27,-631.26 157.83,-642.67 148.83,-652.52"/>
<polygon fill="black" stroke="black" points="146.14,-650.27 141.98,-660.01 151.31,-655 146.14,-650.27"/>
</g>
<!-- RFC&#45;&gt;sysadmins -->
<g id="edge10" class="edge">
<title>RFC&#45;&gt;sysadmins</title>
<path fill="none" stroke="black" d="M192.58,-622.16C192.07,-652.77 188.02,-717.56 164.5,-765.75 159.11,-776.8 150.71,-787.23 142.43,-795.86"/>
<polygon fill="black" stroke="black" points="139.91,-793.44 135.27,-802.96 144.84,-798.41 139.91,-793.44"/>
</g>
<!-- RFC&#45;&gt;netadmins -->
<g id="edge11" class="edge">
<title>RFC&#45;&gt;netadmins</title>
<path fill="none" stroke="black" d="M195.87,-621.9C203.15,-659 220.41,-746.94 229.18,-791.65"/>
<polygon fill="black" stroke="black" points="225.76,-792.38 231.12,-801.52 232.63,-791.03 225.76,-792.38"/>
</g>
<!-- code -->
<g id="node7" class="node">
<title>code</title>
<polygon fill="none" stroke="black" points="149.5,-765.75 101.5,-765.75 101.5,-729.75 155.5,-729.75 155.5,-759.75 149.5,-765.75"/>
<polyline fill="none" stroke="black" points="149.5,-765.75 149.5,-759.75 "/>
<polyline fill="none" stroke="black" points="155.5,-759.75 149.5,-759.75 "/>
<text text-anchor="middle" x="128.5" y="-744.05" font-family="Times,serif" font-size="14.00">code</text>
</g>
<!-- code&#45;&gt;sysadmins -->
<g id="edge8" class="edge">
<title>code&#45;&gt;sysadmins</title>
<path fill="none" stroke="black" d="M125.53,-766.06C124.21,-773.77 122.62,-783.04 121.15,-791.64"/>
<polygon fill="black" stroke="black" points="117.67,-791.2 119.43,-801.65 124.57,-792.38 117.67,-791.2"/>
</g>
<!-- code&#45;&gt;netadmins -->
<g id="edge9" class="edge">
<title>code&#45;&gt;netadmins</title>
<path fill="none" stroke="black" d="M154.43,-765.88C169.08,-775.55 187.51,-787.72 202.99,-797.95"/>
<polygon fill="black" stroke="black" points="201.44,-801.12 211.72,-803.71 205.3,-795.28 201.44,-801.12"/>
</g>
<!-- computers -->
<g id="node8" class="node">
<title>computers</title>
<polygon fill="none" stroke="black" points="115.5,-909.75 45.5,-909.75 41.5,-905.75 41.5,-873.75 111.5,-873.75 115.5,-877.75 115.5,-909.75"/>
<polyline fill="none" stroke="black" points="111.5,-905.75 41.5,-905.75 "/>
<polyline fill="none" stroke="black" points="111.5,-905.75 111.5,-873.75 "/>
<polyline fill="none" stroke="black" points="111.5,-905.75 115.5,-909.75 "/>
<text text-anchor="middle" x="78.5" y="-888.05" font-family="Times,serif" font-size="14.00">computers</text>
</g>
<!-- computers&#45;&gt;net -->
<g id="edge14" class="edge">
<title>computers&#45;&gt;net</title>
<path fill="none" stroke="black" d="M69.18,-873.38C56,-847.16 33.5,-795.56 33.5,-748.75 33.5,-242.75 33.5,-242.75 33.5,-242.75 33.5,-164.61 107.98,-98.34 153.68,-65.03"/>
<polygon fill="black" stroke="black" points="155.75,-67.86 161.85,-59.2 151.68,-62.16 155.75,-67.86"/>
</g>
<!-- routers -->
<g id="node9" class="node">
<title>routers</title>
<polygon fill="none" stroke="black" points="327.5,-909.75 277.5,-909.75 273.5,-905.75 273.5,-873.75 323.5,-873.75 327.5,-877.75 327.5,-909.75"/>
<polyline fill="none" stroke="black" points="323.5,-905.75 273.5,-905.75 "/>
<polyline fill="none" stroke="black" points="323.5,-905.75 323.5,-873.75 "/>
<polyline fill="none" stroke="black" points="323.5,-905.75 327.5,-909.75 "/>
<text text-anchor="middle" x="300.5" y="-888.05" font-family="Times,serif" font-size="14.00">routers</text>
</g>
<!-- routers&#45;&gt;net -->
<g id="edge15" class="edge">
<title>routers&#45;&gt;net</title>
<path fill="none" stroke="black" d="M314.71,-873.61C334.38,-848.09 367.5,-797.82 367.5,-748.75 367.5,-242.75 367.5,-242.75 367.5,-242.75 367.5,-158.88 279.39,-93.88 226.8,-62.55"/>
<polygon fill="black" stroke="black" points="228.46,-59.47 218.06,-57.46 224.94,-65.52 228.46,-59.47"/>
</g>
<!-- author&#45;&gt;proposal -->
<g id="edge1" class="edge">
<title>author&#45;&gt;proposal</title>
<path fill="none" stroke="black" d="M219.5,-262.06C219.5,-269.77 219.5,-279.04 219.5,-287.64"/>
<polygon fill="black" stroke="black" points="216,-287.65 219.5,-297.65 223,-287.65 216,-287.65"/>
</g>
<!-- editor&#45;&gt;RFC -->
<g id="edge5" class="edge">
<title>editor&#45;&gt;RFC</title>
<path fill="none" stroke="black" d="M198.52,-550.06C197.64,-557.77 196.58,-567.04 195.6,-575.64"/>
<polygon fill="black" stroke="black" points="192.11,-575.32 194.45,-585.65 199.07,-576.11 192.11,-575.32"/>
</g>
<!-- devs&#45;&gt;code -->
<g id="edge7" class="edge">
<title>devs&#45;&gt;code</title>
<path fill="none" stroke="black" d="M128.5,-694.06C128.5,-701.77 128.5,-711.04 128.5,-719.64"/>
<polygon fill="black" stroke="black" points="125,-719.65 128.5,-729.65 132,-719.65 125,-719.65"/>
</g>
<!-- sysadmins&#45;&gt;computers -->
<g id="edge12" class="edge">
<title>sysadmins&#45;&gt;computers</title>
<path fill="none" stroke="black" d="M107.3,-837.7C102.93,-845.75 97.61,-855.55 92.74,-864.53"/>
<polygon fill="black" stroke="black" points="89.57,-863.02 87.88,-873.48 95.72,-866.36 89.57,-863.02"/>
</g>
<!-- netadmins&#45;&gt;routers -->
<g id="edge13" class="edge">
<title>netadmins&#45;&gt;routers</title>
<path fill="none" stroke="black" d="M249.81,-836.99C257.98,-845.66 268.21,-856.5 277.33,-866.18"/>
<polygon fill="black" stroke="black" points="274.95,-868.75 284.35,-873.63 280.04,-863.95 274.95,-868.75"/>
</g>
</g>
</svg>
