<?xml version="1.0" encoding="UTF-8" standalone="no"?>
<!DOCTYPE svg PUBLIC "-//W3C//DTD SVG 1.1//EN"
 "http://www.w3.org/Graphics/SVG/1.1/DTD/svg11.dtd">
<!-- Generated by graphviz version 2.43.0 (0)
 -->
<!-- Title: change_internet Pages: 1 -->
<svg width="342pt" height="918pt"
 viewBox="0.00 0.00 342.00 917.75" xmlns="http://www.w3.org/2000/svg" xmlns:xlink="http://www.w3.org/1999/xlink">
<g id="graph0" class="graph" transform="scale(1 1) rotate(0) translate(4 913.75)">
<title>change_internet</title>
<polygon fill="white" stroke="transparent" points="-4,4 -4,-913.75 338,-913.75 338,4 -4,4"/>
<text text-anchor="middle" x="167" y="-7.8" font-family="Times,serif" font-size="14.00">internet change process &#45;&#45; green is funds flow</text>
<!-- net -->
<g id="node1" class="node">
<title>net</title>
<polygon fill="none" stroke="black" points="184.5,-59 129.5,-59 125.5,-55 125.5,-23 180.5,-23 184.5,-27 184.5,-59"/>
<polyline fill="none" stroke="black" points="180.5,-55 125.5,-55 "/>
<polyline fill="none" stroke="black" points="180.5,-55 180.5,-23 "/>
<polyline fill="none" stroke="black" points="180.5,-55 184.5,-59 "/>
<text text-anchor="middle" x="155" y="-37.3" font-family="Times,serif" font-size="14.00">Internet</text>
</g>
<!-- eco -->
<g id="node3" class="node">
<title>eco</title>
<ellipse fill="none" stroke="black" cx="155" cy="-142.38" rx="47.25" ry="47.25"/>
<text text-anchor="middle" x="155" y="-146.18" font-family="Times,serif" font-size="14.00">global</text>
<text text-anchor="middle" x="155" y="-131.18" font-family="Times,serif" font-size="14.00">economy</text>
</g>
<!-- net&#45;&gt;eco -->
<g id="edge16" class="edge">
<title>net&#45;&gt;eco</title>
<path fill="none" stroke="black" d="M155,-59.31C155,-66.58 155,-75.49 155,-84.72"/>
<polygon fill="black" stroke="black" points="151.5,-84.81 155,-94.81 158.5,-84.81 151.5,-84.81"/>
</g>
<!-- wg -->
<g id="node2" class="node">
<title>wg</title>
<ellipse fill="none" stroke="black" cx="167" cy="-387.75" rx="63.09" ry="18"/>
<text text-anchor="middle" x="167" y="-384.05" font-family="Times,serif" font-size="14.00">working group</text>
</g>
<!-- draft -->
<g id="node5" class="node">
<title>draft</title>
<polygon fill="none" stroke="black" points="188,-477.75 140,-477.75 140,-441.75 194,-441.75 194,-471.75 188,-477.75"/>
<polyline fill="none" stroke="black" points="188,-477.75 188,-471.75 "/>
<polyline fill="none" stroke="black" points="194,-471.75 188,-471.75 "/>
<text text-anchor="middle" x="167" y="-456.05" font-family="Times,serif" font-size="14.00">draft</text>
</g>
<!-- wg&#45;&gt;draft -->
<g id="edge3" class="edge">
<title>wg&#45;&gt;draft</title>
<path fill="none" stroke="black" d="M167,-406.06C167,-413.77 167,-423.04 167,-431.64"/>
<polygon fill="black" stroke="black" points="163.5,-431.65 167,-441.65 170.5,-431.65 163.5,-431.65"/>
</g>
<!-- eco&#45;&gt;wg -->
<g id="edge18" class="edge">
<title>eco&#45;&gt;wg</title>
<path fill="none" stroke="green" d="M146.11,-189.26C140.12,-228.13 134.96,-285.13 145,-333.75 146.85,-342.73 150.22,-352.1 153.76,-360.42"/>
<polygon fill="green" stroke="green" points="150.62,-361.96 157.93,-369.62 156.99,-359.07 150.62,-361.96"/>
</g>
<!-- author -->
<g id="node10" class="node">
<title>author</title>
<ellipse fill="none" stroke="black" cx="186" cy="-243.75" rx="33.29" ry="18"/>
<text text-anchor="middle" x="186" y="-240.05" font-family="Times,serif" font-size="14.00">author</text>
</g>
<!-- eco&#45;&gt;author -->
<g id="edge17" class="edge">
<title>eco&#45;&gt;author</title>
<path fill="none" stroke="green" d="M168.87,-187.83C171.88,-197.49 174.98,-207.41 177.69,-216.12"/>
<polygon fill="green" stroke="green" points="174.36,-217.2 180.68,-225.7 181.04,-215.11 174.36,-217.2"/>
</g>
<!-- editor -->
<g id="node11" class="node">
<title>editor</title>
<ellipse fill="none" stroke="black" cx="167" cy="-531.75" rx="31.4" ry="18"/>
<text text-anchor="middle" x="167" y="-528.05" font-family="Times,serif" font-size="14.00">editor</text>
</g>
<!-- eco&#45;&gt;editor -->
<g id="edge19" class="edge">
<title>eco&#45;&gt;editor</title>
<path fill="none" stroke="green" d="M189.01,-175.68C219.01,-207.81 258,-260.08 258,-314.75 258,-314.75 258,-314.75 258,-388.75 258,-438.05 218.63,-483.93 191.68,-509.56"/>
<polygon fill="green" stroke="green" points="189.09,-507.19 184.12,-516.54 193.84,-512.33 189.09,-507.19"/>
</g>
<!-- devs -->
<g id="node12" class="node">
<title>devs</title>
<ellipse fill="none" stroke="black" cx="95" cy="-675.75" rx="27" ry="18"/>
<text text-anchor="middle" x="95" y="-672.05" font-family="Times,serif" font-size="14.00">devs</text>
</g>
<!-- eco&#45;&gt;devs -->
<g id="edge20" class="edge">
<title>eco&#45;&gt;devs</title>
<path fill="none" stroke="green" d="M126.48,-180.59C103.85,-213.87 76,-264.95 76,-314.75 76,-314.75 76,-314.75 76,-532.75 76,-573.11 83.63,-619.36 89.22,-647.82"/>
<polygon fill="green" stroke="green" points="85.83,-648.69 91.25,-657.8 92.69,-647.31 85.83,-648.69"/>
</g>
<!-- sysadmins -->
<g id="node13" class="node">
<title>sysadmins</title>
<ellipse fill="none" stroke="black" cx="83" cy="-819.75" rx="48.19" ry="18"/>
<text text-anchor="middle" x="83" y="-816.05" font-family="Times,serif" font-size="14.00">sysadmins</text>
</g>
<!-- eco&#45;&gt;sysadmins -->
<g id="edge21" class="edge">
<title>eco&#45;&gt;sysadmins</title>
<path fill="none" stroke="green" d="M118.3,-172.99C83.99,-204.25 38,-256.93 38,-314.75 38,-314.75 38,-314.75 38,-676.75 38,-718.86 56.2,-764.84 69.45,-792.74"/>
<polygon fill="green" stroke="green" points="66.35,-794.37 73.89,-801.81 72.64,-791.29 66.35,-794.37"/>
</g>
<!-- netadmins -->
<g id="node14" class="node">
<title>netadmins</title>
<ellipse fill="none" stroke="black" cx="201" cy="-819.75" rx="47.39" ry="18"/>
<text text-anchor="middle" x="201" y="-816.05" font-family="Times,serif" font-size="14.00">netadmins</text>
</g>
<!-- eco&#45;&gt;netadmins -->
<g id="edge22" class="edge">
<title>eco&#45;&gt;netadmins</title>
<path fill="none" stroke="green" d="M195.03,-168.31C236.71,-197.72 296,-250.79 296,-314.75 296,-314.75 296,-314.75 296,-676.75 296,-725.83 256.32,-770.78 228.25,-796.44"/>
<polygon fill="green" stroke="green" points="225.84,-793.9 220.68,-803.15 230.49,-799.13 225.84,-793.9"/>
</g>
<!-- proposal -->
<g id="node4" class="node">
<title>proposal</title>
<polygon fill="none" stroke="black" points="211.5,-333.75 154.5,-333.75 154.5,-297.75 217.5,-297.75 217.5,-327.75 211.5,-333.75"/>
<polyline fill="none" stroke="black" points="211.5,-333.75 211.5,-327.75 "/>
<polyline fill="none" stroke="black" points="217.5,-327.75 211.5,-327.75 "/>
<text text-anchor="middle" x="186" y="-312.05" font-family="Times,serif" font-size="14.00">proposal</text>
</g>
<!-- proposal&#45;&gt;wg -->
<g id="edge2" class="edge">
<title>proposal&#45;&gt;wg</title>
<path fill="none" stroke="black" d="M181.3,-334.06C179.19,-341.85 176.64,-351.24 174.28,-359.92"/>
<polygon fill="black" stroke="black" points="170.88,-359.08 171.64,-369.65 177.64,-360.91 170.88,-359.08"/>
</g>
<!-- draft&#45;&gt;editor -->
<g id="edge4" class="edge">
<title>draft&#45;&gt;editor</title>
<path fill="none" stroke="black" d="M167,-478.06C167,-485.77 167,-495.04 167,-503.64"/>
<polygon fill="black" stroke="black" points="163.5,-503.65 167,-513.65 170.5,-503.65 163.5,-503.65"/>
</g>
<!-- RFC -->
<g id="node6" class="node">
<title>RFC</title>
<polygon fill="none" stroke="black" points="180,-621.75 132,-621.75 132,-585.75 186,-585.75 186,-615.75 180,-621.75"/>
<polyline fill="none" stroke="black" points="180,-621.75 180,-615.75 "/>
<polyline fill="none" stroke="black" points="186,-615.75 180,-615.75 "/>
<text text-anchor="middle" x="159" y="-600.05" font-family="Times,serif" font-size="14.00">RFC</text>
</g>
<!-- RFC&#45;&gt;devs -->
<g id="edge6" class="edge">
<title>RFC&#45;&gt;devs</title>
<path fill="none" stroke="black" d="M143.18,-622.06C134.77,-631.26 124.33,-642.67 115.33,-652.52"/>
<polygon fill="black" stroke="black" points="112.64,-650.27 108.48,-660.01 117.81,-655 112.64,-650.27"/>
</g>
<!-- RFC&#45;&gt;sysadmins -->
<g id="edge10" class="edge">
<title>RFC&#45;&gt;sysadmins</title>
<path fill="none" stroke="black" d="M159.08,-622.16C158.57,-652.77 154.52,-717.56 131,-765.75 125.61,-776.8 117.21,-787.23 108.93,-795.86"/>
<polygon fill="black" stroke="black" points="106.41,-793.44 101.77,-802.96 111.34,-798.41 106.41,-793.44"/>
</g>
<!-- RFC&#45;&gt;netadmins -->
<g id="edge11" class="edge">
<title>RFC&#45;&gt;netadmins</title>
<path fill="none" stroke="black" d="M162.37,-621.9C169.65,-659 186.91,-746.94 195.68,-791.65"/>
<polygon fill="black" stroke="black" points="192.26,-792.38 197.62,-801.52 199.13,-791.03 192.26,-792.38"/>
</g>
<!-- code -->
<g id="node7" class="node">
<title>code</title>
<polygon fill="none" stroke="black" points="116,-765.75 68,-765.75 68,-729.75 122,-729.75 122,-759.75 116,-765.75"/>
<polyline fill="none" stroke="black" points="116,-765.75 116,-759.75 "/>
<polyline fill="none" stroke="black" points="122,-759.75 116,-759.75 "/>
<text text-anchor="middle" x="95" y="-744.05" font-family="Times,serif" font-size="14.00">code</text>
</g>
<!-- code&#45;&gt;sysadmins -->
<g id="edge8" class="edge">
<title>code&#45;&gt;sysadmins</title>
<path fill="none" stroke="black" d="M92.03,-766.06C90.71,-773.77 89.12,-783.04 87.65,-791.64"/>
<polygon fill="black" stroke="black" points="84.17,-791.2 85.93,-801.65 91.07,-792.38 84.17,-791.2"/>
</g>
<!-- code&#45;&gt;netadmins -->
<g id="edge9" class="edge">
<title>code&#45;&gt;netadmins</title>
<path fill="none" stroke="black" d="M120.93,-765.88C135.58,-775.55 154.01,-787.72 169.49,-797.95"/>
<polygon fill="black" stroke="black" points="167.94,-801.12 178.22,-803.71 171.8,-795.28 167.94,-801.12"/>
</g>
<!-- computers -->
<g id="node8" class="node">
<title>computers</title>
<polygon fill="none" stroke="black" points="82,-909.75 12,-909.75 8,-905.75 8,-873.75 78,-873.75 82,-877.75 82,-909.75"/>
<polyline fill="none" stroke="black" points="78,-905.75 8,-905.75 "/>
<polyline fill="none" stroke="black" points="78,-905.75 78,-873.75 "/>
<polyline fill="none" stroke="black" points="78,-905.75 82,-909.75 "/>
<text text-anchor="middle" x="45" y="-888.05" font-family="Times,serif" font-size="14.00">computers</text>
</g>
<!-- computers&#45;&gt;net -->
<g id="edge14" class="edge">
<title>computers&#45;&gt;net</title>
<path fill="none" stroke="black" d="M35.68,-873.38C22.5,-847.16 0,-795.56 0,-748.75 0,-242.75 0,-242.75 0,-242.75 0,-164.61 74.48,-98.34 120.18,-65.03"/>
<polygon fill="black" stroke="black" points="122.25,-67.86 128.35,-59.2 118.18,-62.16 122.25,-67.86"/>
</g>
<!-- routers -->
<g id="node9" class="node">
<title>routers</title>
<polygon fill="none" stroke="black" points="294,-909.75 244,-909.75 240,-905.75 240,-873.75 290,-873.75 294,-877.75 294,-909.75"/>
<polyline fill="none" stroke="black" points="290,-905.75 240,-905.75 "/>
<polyline fill="none" stroke="black" points="290,-905.75 290,-873.75 "/>
<polyline fill="none" stroke="black" points="290,-905.75 294,-909.75 "/>
<text text-anchor="middle" x="267" y="-888.05" font-family="Times,serif" font-size="14.00">routers</text>
</g>
<!-- routers&#45;&gt;net -->
<g id="edge15" class="edge">
<title>routers&#45;&gt;net</title>
<path fill="none" stroke="black" d="M281.21,-873.61C300.88,-848.09 334,-797.82 334,-748.75 334,-242.75 334,-242.75 334,-242.75 334,-158.88 245.89,-93.88 193.3,-62.55"/>
<polygon fill="black" stroke="black" points="194.96,-59.47 184.56,-57.46 191.44,-65.52 194.96,-59.47"/>
</g>
<!-- author&#45;&gt;proposal -->
<g id="edge1" class="edge">
<title>author&#45;&gt;proposal</title>
<path fill="none" stroke="black" d="M186,-262.06C186,-269.77 186,-279.04 186,-287.64"/>
<polygon fill="black" stroke="black" points="182.5,-287.65 186,-297.65 189.5,-287.65 182.5,-287.65"/>
</g>
<!-- editor&#45;&gt;RFC -->
<g id="edge5" class="edge">
<title>editor&#45;&gt;RFC</title>
<path fill="none" stroke="black" d="M165.02,-550.06C164.14,-557.77 163.08,-567.04 162.1,-575.64"/>
<polygon fill="black" stroke="black" points="158.61,-575.32 160.95,-585.65 165.57,-576.11 158.61,-575.32"/>
</g>
<!-- devs&#45;&gt;code -->
<g id="edge7" class="edge">
<title>devs&#45;&gt;code</title>
<path fill="none" stroke="black" d="M95,-694.06C95,-701.77 95,-711.04 95,-719.64"/>
<polygon fill="black" stroke="black" points="91.5,-719.65 95,-729.65 98.5,-719.65 91.5,-719.65"/>
</g>
<!-- sysadmins&#45;&gt;computers -->
<g id="edge12" class="edge">
<title>sysadmins&#45;&gt;computers</title>
<path fill="none" stroke="black" d="M73.8,-837.7C69.43,-845.75 64.11,-855.55 59.24,-864.53"/>
<polygon fill="black" stroke="black" points="56.07,-863.02 54.38,-873.48 62.22,-866.36 56.07,-863.02"/>
</g>
<!-- netadmins&#45;&gt;routers -->
<g id="edge13" class="edge">
<title>netadmins&#45;&gt;routers</title>
<path fill="none" stroke="black" d="M216.31,-836.99C224.48,-845.66 234.71,-856.5 243.83,-866.18"/>
<polygon fill="black" stroke="black" points="241.45,-868.75 250.85,-873.63 246.54,-863.95 241.45,-868.75"/>
</g>
</g>
</svg>
