<?xml version="1.0" encoding="UTF-8" standalone="no"?>
<!DOCTYPE svg PUBLIC "-//W3C//DTD SVG 1.1//EN"
 "http://www.w3.org/Graphics/SVG/1.1/DTD/svg11.dtd">
<!-- Generated by graphviz version 2.43.0 (0)
 -->
<!-- Title: change_nom Pages: 1 -->
<svg width="543pt" height="783pt"
 viewBox="0.00 0.00 543.00 782.66" xmlns="http://www.w3.org/2000/svg" xmlns:xlink="http://www.w3.org/1999/xlink">
<g id="graph0" class="graph" transform="scale(1 1) rotate(0) translate(4 778.66)">
<title>change_nom</title>
<polygon fill="white" stroke="transparent" points="-4,4 -4,-778.66 539,-778.66 539,4 -4,4"/>
<text text-anchor="middle" x="267.5" y="-22.8" font-family="Times,serif" font-size="14.00">NoM process for change &#45;&#45; 2016&#45;2022</text>
<text text-anchor="middle" x="267.5" y="-7.8" font-family="Times,serif" font-size="14.00">green is funds flow, black is effort/text/code</text>
<!-- eco -->
<g id="node1" class="node">
<title>eco</title>
<ellipse fill="none" stroke="black" cx="280" cy="-727.28" rx="47.25" ry="47.25"/>
<text text-anchor="middle" x="280" y="-731.08" font-family="Times,serif" font-size="14.00">global</text>
<text text-anchor="middle" x="280" y="-716.08" font-family="Times,serif" font-size="14.00">economy</text>
</g>
<!-- makers -->
<g id="node5" class="node">
<title>makers</title>
<ellipse fill="none" stroke="black" cx="365" cy="-625.91" rx="36.29" ry="18"/>
<text text-anchor="middle" x="365" y="-622.21" font-family="Times,serif" font-size="14.00">makers</text>
</g>
<!-- eco&#45;&gt;makers -->
<g id="edge1" class="edge">
<title>eco&#45;&gt;makers</title>
<path fill="none" stroke="green" d="M310.45,-690.69C321.83,-677.38 334.46,-662.61 344.7,-650.63"/>
<polygon fill="green" stroke="green" points="347.53,-652.72 351.37,-642.84 342.21,-648.17 347.53,-652.72"/>
</g>
<!-- organizers -->
<g id="node6" class="node">
<title>organizers</title>
<ellipse fill="none" stroke="black" cx="280" cy="-451.48" rx="47.39" ry="18"/>
<text text-anchor="middle" x="280" y="-447.78" font-family="Times,serif" font-size="14.00">organizers</text>
</g>
<!-- eco&#45;&gt;organizers -->
<g id="edge2" class="edge">
<title>eco&#45;&gt;organizers</title>
<path fill="none" stroke="green" d="M280,-679.84C280,-622.49 280,-526.81 280,-479.99"/>
<polygon fill="green" stroke="green" points="283.5,-479.71 280,-469.71 276.5,-479.71 283.5,-479.71"/>
</g>
<!-- wg -->
<g id="node2" class="node">
<title>wg</title>
<ellipse fill="none" stroke="black" cx="72" cy="-208.87" rx="43.68" ry="26.74"/>
<text text-anchor="middle" x="72" y="-212.67" font-family="Times,serif" font-size="14.00">working</text>
<text text-anchor="middle" x="72" y="-197.67" font-family="Times,serif" font-size="14.00">groups</text>
</g>
<!-- docs -->
<g id="node9" class="node">
<title>docs</title>
<ellipse fill="none" stroke="black" cx="144" cy="-128" rx="27" ry="18"/>
<text text-anchor="middle" x="144" y="-124.3" font-family="Times,serif" font-size="14.00">docs</text>
</g>
<!-- wg&#45;&gt;docs -->
<g id="edge15" class="edge">
<title>wg&#45;&gt;docs</title>
<path fill="none" stroke="black" d="M92.83,-185.06C102.49,-174.47 113.94,-161.93 123.56,-151.4"/>
<polygon fill="black" stroke="black" points="126.33,-153.54 130.49,-143.8 121.16,-148.82 126.33,-153.54"/>
</g>
<!-- policy -->
<g id="node12" class="node">
<title>policy</title>
<ellipse fill="none" stroke="black" cx="116" cy="-56" rx="32.49" ry="18"/>
<text text-anchor="middle" x="116" y="-52.3" font-family="Times,serif" font-size="14.00">policy</text>
</g>
<!-- wg&#45;&gt;policy -->
<g id="edge16" class="edge">
<title>wg&#45;&gt;policy</title>
<path fill="none" stroke="black" d="M79.46,-182.28C87.46,-154.84 100.11,-111.49 108.23,-83.66"/>
<polygon fill="black" stroke="black" points="111.66,-84.39 111.1,-73.81 104.94,-82.43 111.66,-84.39"/>
</g>
<!-- orgs -->
<g id="node3" class="node">
<title>orgs</title>
<polygon fill="none" stroke="black" points="484.58,-549.02 407,-572.12 329.42,-549.02 329.49,-511.65 484.51,-511.65 484.58,-549.02"/>
<text text-anchor="middle" x="407" y="-542.49" font-family="Times,serif" font-size="14.00">organizations</text>
<text text-anchor="middle" x="407" y="-527.49" font-family="Times,serif" font-size="14.00"> and spaces</text>
</g>
<!-- orgs&#45;&gt;organizers -->
<g id="edge3" class="edge">
<title>orgs&#45;&gt;organizers</title>
<path fill="none" stroke="green" d="M361.57,-511.43C343.16,-499.55 322.57,-485.67 306.62,-474.36"/>
<polygon fill="green" stroke="green" points="308.45,-471.36 298.29,-468.37 304.37,-477.05 308.45,-471.36"/>
</g>
<!-- nom -->
<g id="node7" class="node">
<title>nom</title>
<ellipse fill="none" stroke="black" cx="424" cy="-289.74" rx="27" ry="18"/>
<text text-anchor="middle" x="424" y="-286.04" font-family="Times,serif" font-size="14.00">nom</text>
</g>
<!-- orgs&#45;&gt;nom -->
<g id="edge5" class="edge">
<title>orgs&#45;&gt;nom</title>
<path fill="none" stroke="green" d="M425.02,-511.5C442.5,-484.37 467.83,-440.08 478,-397.48 483.55,-374.25 487.24,-365.76 478,-343.74 472.29,-330.13 461.19,-318.26 450.53,-309.22"/>
<polygon fill="green" stroke="green" points="452.57,-306.37 442.56,-302.88 448.21,-311.84 452.57,-306.37"/>
</g>
<!-- ga -->
<g id="node4" class="node">
<title>ga</title>
<ellipse fill="none" stroke="black" cx="424" cy="-370.61" rx="44.6" ry="26.74"/>
<text text-anchor="middle" x="424" y="-374.41" font-family="Times,serif" font-size="14.00">granting</text>
<text text-anchor="middle" x="424" y="-359.41" font-family="Times,serif" font-size="14.00">agencies</text>
</g>
<!-- ga&#45;&gt;orgs -->
<g id="edge9" class="edge">
<title>ga&#45;&gt;orgs</title>
<path fill="none" stroke="green" d="M421.35,-397.53C418.49,-425.4 413.94,-469.91 410.73,-501.28"/>
<polygon fill="green" stroke="green" points="407.23,-501.07 409.69,-511.38 414.19,-501.79 407.23,-501.07"/>
</g>
<!-- ga&#45;&gt;nom -->
<g id="edge10" class="edge">
<title>ga&#45;&gt;nom</title>
<path fill="none" stroke="green" d="M417.62,-343.79C417.15,-335.45 417.13,-326.18 417.56,-317.76"/>
<polygon fill="green" stroke="green" points="421.06,-317.91 418.34,-307.67 414.08,-317.37 421.06,-317.91"/>
</g>
<!-- makers&#45;&gt;orgs -->
<g id="edge4" class="edge">
<title>makers&#45;&gt;orgs</title>
<path fill="none" stroke="green" d="M373.3,-608.07C377.62,-599.29 383.1,-588.18 388.38,-577.47"/>
<polygon fill="green" stroke="green" points="391.65,-578.76 392.93,-568.24 385.37,-575.66 391.65,-578.76"/>
</g>
<!-- organizers&#45;&gt;wg -->
<g id="edge26" class="edge">
<title>organizers&#45;&gt;wg</title>
<path fill="none" stroke="black" d="M233.25,-448.04C195.45,-443.51 143.64,-431.08 113,-397.48 75.1,-355.92 69.35,-287.66 69.83,-245.94"/>
<polygon fill="black" stroke="black" points="73.33,-246.02 70.07,-235.94 66.33,-245.85 73.33,-246.02"/>
</g>
<!-- organizers&#45;&gt;orgs -->
<g id="edge24" class="edge">
<title>organizers&#45;&gt;orgs</title>
<path fill="none" stroke="black" d="M306.29,-466.64C323.49,-477.24 346.18,-492.15 365.71,-505.59"/>
<polygon fill="black" stroke="black" points="363.93,-508.61 374.15,-511.43 367.92,-502.86 363.93,-508.61"/>
</g>
<!-- organizers&#45;&gt;ga -->
<g id="edge7" class="edge">
<title>organizers&#45;&gt;ga</title>
<path fill="none" stroke="black" d="M306.08,-436.2C327.52,-424.46 358.28,-407.61 383.01,-394.06"/>
<polygon fill="black" stroke="black" points="384.73,-397.11 391.82,-389.24 381.36,-390.97 384.73,-397.11"/>
</g>
<!-- events -->
<g id="node8" class="node">
<title>events</title>
<ellipse fill="none" stroke="black" cx="269" cy="-208.87" rx="33.29" ry="18"/>
<text text-anchor="middle" x="269" y="-205.17" font-family="Times,serif" font-size="14.00">events</text>
</g>
<!-- organizers&#45;&gt;events -->
<g id="edge23" class="edge">
<title>organizers&#45;&gt;events</title>
<path fill="none" stroke="black" d="M271.03,-433.72C255.22,-402.07 225.32,-331.32 239,-271.74 241.91,-259.05 247.79,-245.95 253.57,-235.08"/>
<polygon fill="black" stroke="black" points="256.73,-236.61 258.56,-226.18 250.62,-233.19 256.73,-236.61"/>
</g>
<!-- calls -->
<g id="node11" class="node">
<title>calls</title>
<ellipse fill="none" stroke="black" cx="182" cy="-370.61" rx="27" ry="18"/>
<text text-anchor="middle" x="182" y="-366.91" font-family="Times,serif" font-size="14.00">calls</text>
</g>
<!-- organizers&#45;&gt;calls -->
<g id="edge25" class="edge">
<title>organizers&#45;&gt;calls</title>
<path fill="none" stroke="black" d="M260.64,-434.9C245.25,-422.51 223.61,-405.1 206.92,-391.67"/>
<polygon fill="black" stroke="black" points="208.7,-388.6 198.71,-385.06 204.31,-394.06 208.7,-388.6"/>
</g>
<!-- code -->
<g id="node13" class="node">
<title>code</title>
<ellipse fill="none" stroke="black" cx="275" cy="-289.74" rx="27.1" ry="18"/>
<text text-anchor="middle" x="275" y="-286.04" font-family="Times,serif" font-size="14.00">code</text>
</g>
<!-- organizers&#45;&gt;code -->
<g id="edge22" class="edge">
<title>organizers&#45;&gt;code</title>
<path fill="none" stroke="black" d="M279.46,-433.39C278.6,-405.91 276.91,-351.65 275.87,-318.54"/>
<polygon fill="black" stroke="black" points="279.36,-318.08 275.55,-308.2 272.36,-318.3 279.36,-318.08"/>
</g>
<!-- nom&#45;&gt;ga -->
<g id="edge8" class="edge">
<title>nom&#45;&gt;ga</title>
<path fill="none" stroke="black" d="M429.66,-307.67C430.5,-315.32 430.85,-324.66 430.73,-333.74"/>
<polygon fill="black" stroke="black" points="427.23,-333.67 430.38,-343.79 434.22,-333.91 427.23,-333.67"/>
</g>
<!-- nom&#45;&gt;organizers -->
<g id="edge21" class="edge">
<title>nom&#45;&gt;organizers</title>
<path fill="none" stroke="black" d="M408.85,-304.68C397.75,-315.11 382.51,-329.9 370,-343.74 349.49,-366.44 346.71,-374.09 327,-397.48 318.91,-407.08 309.8,-417.45 301.76,-426.46"/>
<polygon fill="black" stroke="black" points="299.11,-424.18 295.04,-433.96 304.32,-428.85 299.11,-424.18"/>
</g>
<!-- nom&#45;&gt;events -->
<g id="edge6" class="edge">
<title>nom&#45;&gt;events</title>
<path fill="none" stroke="green" d="M403.1,-278.1C376.96,-264.8 331.94,-241.9 301.35,-226.33"/>
<polygon fill="green" stroke="green" points="302.85,-223.17 292.35,-221.75 299.68,-229.41 302.85,-223.17"/>
</g>
<!-- events&#45;&gt;docs -->
<g id="edge11" class="edge">
<title>events&#45;&gt;docs</title>
<path fill="none" stroke="black" d="M248.08,-194.67C227.09,-181.43 194.67,-160.97 171.59,-146.41"/>
<polygon fill="black" stroke="black" points="173.27,-143.33 162.94,-140.95 169.53,-149.25 173.27,-143.33"/>
</g>
<!-- videos -->
<g id="node10" class="node">
<title>videos</title>
<ellipse fill="none" stroke="black" cx="299" cy="-128" rx="33.6" ry="18"/>
<text text-anchor="middle" x="299" y="-124.3" font-family="Times,serif" font-size="14.00">videos</text>
</g>
<!-- events&#45;&gt;videos -->
<g id="edge12" class="edge">
<title>events&#45;&gt;videos</title>
<path fill="none" stroke="black" d="M275.36,-191.14C279.34,-180.69 284.55,-167 289.06,-155.13"/>
<polygon fill="black" stroke="black" points="292.36,-156.29 292.65,-145.7 285.82,-153.8 292.36,-156.29"/>
</g>
<!-- docs&#45;&gt;organizers -->
<g id="edge17" class="edge">
<title>docs&#45;&gt;organizers</title>
<path fill="none" stroke="black" d="M141.73,-146.08C135.11,-198.61 118,-356.63 146,-397.48 163.77,-423.42 196.39,-436.66 225,-443.42"/>
<polygon fill="black" stroke="black" points="224.41,-446.88 234.92,-445.56 225.88,-440.03 224.41,-446.88"/>
</g>
<!-- docs&#45;&gt;policy -->
<g id="edge18" class="edge">
<title>docs&#45;&gt;policy</title>
<path fill="none" stroke="black" d="M137.36,-110.41C134.13,-102.34 130.17,-92.43 126.54,-83.35"/>
<polygon fill="black" stroke="black" points="129.75,-81.94 122.78,-73.96 123.25,-84.54 129.75,-81.94"/>
</g>
<!-- videos&#45;&gt;organizers -->
<g id="edge13" class="edge">
<title>videos&#45;&gt;organizers</title>
<path fill="none" stroke="black" d="M303.87,-146.02C306.56,-156.33 309.64,-169.81 311,-182 317.21,-237.54 316.82,-252.16 311,-307.74 306.75,-348.29 300.72,-357.66 292,-397.48 290.15,-405.9 288.1,-415.07 286.21,-423.37"/>
<polygon fill="black" stroke="black" points="282.76,-422.78 283.95,-433.31 289.59,-424.33 282.76,-422.78"/>
</g>
<!-- calls&#45;&gt;docs -->
<g id="edge14" class="edge">
<title>calls&#45;&gt;docs</title>
<path fill="none" stroke="black" d="M180.56,-352.42C177.62,-319.25 170.14,-244.2 158,-182 156.33,-173.46 154.07,-164.26 151.85,-155.97"/>
<polygon fill="black" stroke="black" points="155.15,-154.76 149.11,-146.05 148.4,-156.63 155.15,-154.76"/>
</g>
<!-- policy&#45;&gt;eco -->
<g id="edge19" class="edge">
<title>policy&#45;&gt;eco</title>
<path fill="none" stroke="black" d="M95.79,-70.13C62.56,-93.51 0,-145.76 0,-207.87 0,-539.69 0,-539.69 0,-539.69 0,-646.1 141.76,-695.55 223.54,-715.22"/>
<polygon fill="black" stroke="black" points="222.92,-718.67 233.45,-717.53 224.5,-711.85 222.92,-718.67"/>
</g>
<!-- policy&#45;&gt;orgs -->
<g id="edge20" class="edge">
<title>policy&#45;&gt;orgs</title>
<path fill="none" stroke="black" d="M147.15,-61.32C244.26,-75.65 535,-125.43 535,-207.87 535,-371.61 535,-371.61 535,-371.61 535,-426.95 489.87,-475.12 453.21,-505.13"/>
<polygon fill="black" stroke="black" points="450.7,-502.66 445.06,-511.63 455.06,-508.13 450.7,-502.66"/>
</g>
<!-- code&#45;&gt;events -->
<g id="edge27" class="edge">
<title>code&#45;&gt;events</title>
<path fill="none" stroke="black" d="M273.7,-271.63C272.93,-261.5 271.93,-248.44 271.06,-236.94"/>
<polygon fill="black" stroke="black" points="274.55,-236.66 270.3,-226.95 267.57,-237.19 274.55,-236.66"/>
</g>
</g>
</svg>
