<?xml version="1.0" encoding="UTF-8" standalone="no"?>
<!DOCTYPE svg PUBLIC "-//W3C//DTD SVG 1.1//EN"
 "http://www.w3.org/Graphics/SVG/1.1/DTD/svg11.dtd">
<!-- Generated by graphviz version 2.43.0 (0)
 -->
<!-- Title: dataflow2022 Pages: 1 -->
<svg width="789pt" height="523pt"
 viewBox="0.00 0.00 788.69 523.00" xmlns="http://www.w3.org/2000/svg" xmlns:xlink="http://www.w3.org/1999/xlink">
<g id="graph0" class="graph" transform="scale(1 1) rotate(0) translate(4 519)">
<title>dataflow2022</title>
<polygon fill="white" stroke="transparent" points="-4,4 -4,-519 784.69,-519 784.69,4 -4,4"/>
<text text-anchor="middle" x="390.35" y="-7.8" font-family="Times,serif" font-size="14.00">NOMCON 2022 data flow</text>
<g id="clust1" class="cluster">
<title>cluster_0</title>
<polygon fill="none" stroke="black" points="149.15,-102 149.15,-264 509.15,-264 509.15,-102 149.15,-102"/>
<text text-anchor="middle" x="329.15" y="-248.8" font-family="Times,serif" font-size="14.00">sched</text>
</g>
<!-- eventbrite -->
<g id="node1" class="node">
<title>eventbrite</title>
<ellipse fill="none" stroke="black" cx="46.15" cy="-323" rx="46.29" ry="18"/>
<text text-anchor="middle" x="46.15" y="-319.3" font-family="Times,serif" font-size="14.00">eventbrite</text>
</g>
<!-- gather -->
<g id="node2" class="node">
<title>gather</title>
<ellipse fill="none" stroke="black" cx="105.15" cy="-128" rx="32.49" ry="18"/>
<text text-anchor="middle" x="105.15" y="-124.3" font-family="Times,serif" font-size="14.00">gather</text>
</g>
<!-- eventbrite&#45;&gt;gather -->
<g id="edge1" class="edge">
<title>eventbrite&#45;&gt;gather</title>
<path fill="none" stroke="black" d="M32.38,-305.44C24.16,-294.45 14.5,-279.27 10.15,-264 1.98,-235.36 -3.47,-223.48 10.15,-197 22.75,-172.49 48.74,-154.84 70.35,-143.67"/>
<polygon fill="black" stroke="black" points="72.16,-146.68 79.6,-139.14 69.08,-140.4 72.16,-146.68"/>
<text text-anchor="middle" x="36.15" y="-211.3" font-family="Times,serif" font-size="14.00">gatherbot</text>
</g>
<!-- attendee_list -->
<g id="node15" class="node">
<title>attendee_list</title>
<ellipse fill="none" stroke="black" cx="212.15" cy="-215" rx="55.49" ry="18"/>
<text text-anchor="middle" x="212.15" y="-211.3" font-family="Times,serif" font-size="14.00">attendee_list</text>
</g>
<!-- eventbrite&#45;&gt;attendee_list -->
<g id="edge15" class="edge">
<title>eventbrite&#45;&gt;attendee_list</title>
<path fill="none" stroke="black" d="M72.68,-308.11C93.59,-296.88 123.27,-280.31 148.15,-264 160.27,-256.05 173.15,-246.6 184.15,-238.2"/>
<polygon fill="black" stroke="black" points="186.38,-240.9 192.15,-232.02 182.1,-235.36 186.38,-240.9"/>
<text text-anchor="middle" x="201.65" y="-275.8" font-family="Times,serif" font-size="14.00">sched builtin integration</text>
</g>
<!-- design -->
<g id="node3" class="node">
<title>design</title>
<ellipse fill="none" stroke="black" cx="105.15" cy="-215" rx="33.6" ry="18"/>
<text text-anchor="middle" x="105.15" y="-211.3" font-family="Times,serif" font-size="14.00">design</text>
</g>
<!-- design&#45;&gt;gather -->
<g id="edge2" class="edge">
<title>design&#45;&gt;gather</title>
<path fill="none" stroke="black" d="M105.15,-196.8C105.15,-185.16 105.15,-169.55 105.15,-156.24"/>
<polygon fill="black" stroke="black" points="108.65,-156.18 105.15,-146.18 101.65,-156.18 108.65,-156.18"/>
<text text-anchor="middle" x="118.15" y="-167.8" font-family="Times,serif" font-size="14.00">chad</text>
</g>
<!-- zoom -->
<g id="node4" class="node">
<title>zoom</title>
<ellipse fill="none" stroke="black" cx="586.15" cy="-323" rx="30.59" ry="18"/>
<text text-anchor="middle" x="586.15" y="-319.3" font-family="Times,serif" font-size="14.00">zoom</text>
</g>
<!-- video -->
<g id="node5" class="node">
<title>video</title>
<ellipse fill="none" stroke="black" cx="750.15" cy="-215" rx="30.59" ry="18"/>
<text text-anchor="middle" x="750.15" y="-211.3" font-family="Times,serif" font-size="14.00">video</text>
</g>
<!-- zoom&#45;&gt;video -->
<g id="edge3" class="edge">
<title>zoom&#45;&gt;video</title>
<path fill="none" stroke="black" d="M616.17,-319.12C641.96,-315.35 679.01,-306.7 705.15,-287 720.35,-275.54 731.74,-257.33 739.26,-242.22"/>
<polygon fill="black" stroke="black" points="742.58,-243.38 743.64,-232.84 736.24,-240.42 742.58,-243.38"/>
<text text-anchor="middle" x="727.65" y="-275.8" font-family="Times,serif" font-size="14.00">joe</text>
</g>
<!-- doc -->
<g id="node6" class="node">
<title>doc</title>
<ellipse fill="none" stroke="black" cx="560.15" cy="-41" rx="27" ry="18"/>
<text text-anchor="middle" x="560.15" y="-37.3" font-family="Times,serif" font-size="14.00">doc</text>
</g>
<!-- zoom&#45;&gt;doc -->
<g id="edge4" class="edge">
<title>zoom&#45;&gt;doc</title>
<path fill="none" stroke="black" d="M584.56,-304.91C580.2,-257.95 568.01,-126.65 562.68,-69.34"/>
<polygon fill="black" stroke="black" points="566.16,-68.86 561.75,-59.23 559.19,-69.51 566.16,-68.86"/>
<text text-anchor="middle" x="613.15" y="-167.8" font-family="Times,serif" font-size="14.00">documentarian</text>
</g>
<!-- zoom&#45;&gt;doc -->
<g id="edge5" class="edge">
<title>zoom&#45;&gt;doc</title>
<path fill="none" stroke="black" d="M601.41,-307.12C627.77,-279.53 677.26,-218.31 658.15,-164 643.56,-122.56 608.3,-84.79 584.3,-62.59"/>
<polygon fill="black" stroke="black" points="586.41,-59.78 576.64,-55.68 581.72,-64.97 586.41,-59.78"/>
<text text-anchor="middle" x="687.15" y="-167.8" font-family="Times,serif" font-size="14.00">chat mod</text>
</g>
<!-- zoom&#45;&gt;doc -->
<g id="edge6" class="edge">
<title>zoom&#45;&gt;doc</title>
<path fill="none" stroke="black" d="M578.7,-305.27C567.48,-279 546.71,-226.22 539.15,-179 533.01,-140.66 542.95,-96.21 551.14,-68.6"/>
<polygon fill="black" stroke="black" points="554.54,-69.47 554.16,-58.88 547.85,-67.4 554.54,-69.47"/>
<text text-anchor="middle" x="553.15" y="-167.8" font-family="Times,serif" font-size="14.00">steve</text>
</g>
<!-- zoom_link -->
<g id="node13" class="node">
<title>zoom_link</title>
<ellipse fill="none" stroke="black" cx="452.15" cy="-215" rx="48.99" ry="18"/>
<text text-anchor="middle" x="452.15" y="-211.3" font-family="Times,serif" font-size="14.00">zoom_link</text>
</g>
<!-- zoom&#45;&gt;zoom_link -->
<g id="edge11" class="edge">
<title>zoom&#45;&gt;zoom_link</title>
<path fill="none" stroke="black" d="M559.09,-314.52C542.1,-308.88 520.39,-299.9 504.15,-287 488.59,-274.65 475.42,-256.53 466.23,-241.69"/>
<polygon fill="black" stroke="black" points="469.15,-239.76 461.03,-232.95 463.14,-243.33 469.15,-239.76"/>
<text text-anchor="middle" x="512.65" y="-275.8" font-family="Times,serif" font-size="14.00">joe</text>
</g>
<!-- proposals -->
<g id="node7" class="node">
<title>proposals</title>
<ellipse fill="none" stroke="black" cx="335.15" cy="-410" rx="44.39" ry="18"/>
<text text-anchor="middle" x="335.15" y="-406.3" font-family="Times,serif" font-size="14.00">proposals</text>
</g>
<!-- sessions -->
<g id="node8" class="node">
<title>sessions</title>
<ellipse fill="none" stroke="black" cx="335.15" cy="-323" rx="39.79" ry="18"/>
<text text-anchor="middle" x="335.15" y="-319.3" font-family="Times,serif" font-size="14.00">sessions</text>
</g>
<!-- proposals&#45;&gt;sessions -->
<g id="edge7" class="edge">
<title>proposals&#45;&gt;sessions</title>
<path fill="none" stroke="black" d="M335.15,-391.8C335.15,-380.16 335.15,-364.55 335.15,-351.24"/>
<polygon fill="black" stroke="black" points="338.65,-351.18 335.15,-341.18 331.65,-351.18 338.65,-351.18"/>
<text text-anchor="middle" x="364.15" y="-362.8" font-family="Times,serif" font-size="14.00">callfor.app</text>
</g>
<!-- description -->
<g id="node12" class="node">
<title>description</title>
<ellipse fill="none" stroke="black" cx="335.15" cy="-215" rx="50.09" ry="18"/>
<text text-anchor="middle" x="335.15" y="-211.3" font-family="Times,serif" font-size="14.00">description</text>
</g>
<!-- sessions&#45;&gt;description -->
<g id="edge12" class="edge">
<title>sessions&#45;&gt;description</title>
<path fill="none" stroke="black" d="M335.15,-304.97C335.15,-288.38 335.15,-262.88 335.15,-243.43"/>
<polygon fill="black" stroke="black" points="338.65,-243.34 335.15,-233.34 331.65,-243.34 338.65,-243.34"/>
<text text-anchor="middle" x="368.65" y="-275.8" font-family="Times,serif" font-size="14.00">trey/dorothy</text>
</g>
<!-- RFPs -->
<g id="node9" class="node">
<title>RFPs</title>
<ellipse fill="none" stroke="black" cx="335.15" cy="-497" rx="29.8" ry="18"/>
<text text-anchor="middle" x="335.15" y="-493.3" font-family="Times,serif" font-size="14.00">RFPs</text>
</g>
<!-- RFPs&#45;&gt;proposals -->
<g id="edge8" class="edge">
<title>RFPs&#45;&gt;proposals</title>
<path fill="none" stroke="black" d="M335.15,-478.8C335.15,-467.16 335.15,-451.55 335.15,-438.24"/>
<polygon fill="black" stroke="black" points="338.65,-438.18 335.15,-428.18 331.65,-438.18 338.65,-438.18"/>
<text text-anchor="middle" x="362.65" y="-449.8" font-family="Times,serif" font-size="14.00">presenters</text>
</g>
<!-- volunteers -->
<g id="node10" class="node">
<title>volunteers</title>
<ellipse fill="none" stroke="black" cx="586.15" cy="-497" rx="47.39" ry="18"/>
<text text-anchor="middle" x="586.15" y="-493.3" font-family="Times,serif" font-size="14.00">volunteers</text>
</g>
<!-- spreadsheet -->
<g id="node11" class="node">
<title>spreadsheet</title>
<ellipse fill="none" stroke="black" cx="586.15" cy="-410" rx="51.99" ry="18"/>
<text text-anchor="middle" x="586.15" y="-406.3" font-family="Times,serif" font-size="14.00">spreadsheet</text>
</g>
<!-- volunteers&#45;&gt;spreadsheet -->
<g id="edge9" class="edge">
<title>volunteers&#45;&gt;spreadsheet</title>
<path fill="none" stroke="black" d="M586.15,-478.8C586.15,-467.16 586.15,-451.55 586.15,-438.24"/>
<polygon fill="black" stroke="black" points="589.65,-438.18 586.15,-428.18 582.65,-438.18 589.65,-438.18"/>
<text text-anchor="middle" x="613.65" y="-449.8" font-family="Times,serif" font-size="14.00">cara/sarah</text>
</g>
<!-- spreadsheet&#45;&gt;zoom -->
<g id="edge10" class="edge">
<title>spreadsheet&#45;&gt;zoom</title>
<path fill="none" stroke="black" d="M586.15,-391.8C586.15,-380.16 586.15,-364.55 586.15,-351.24"/>
<polygon fill="black" stroke="black" points="589.65,-351.18 586.15,-341.18 582.65,-351.18 589.65,-351.18"/>
<text text-anchor="middle" x="613.15" y="-362.8" font-family="Times,serif" font-size="14.00">producers</text>
</g>
<!-- doc_url -->
<g id="node14" class="node">
<title>doc_url</title>
<ellipse fill="none" stroke="black" cx="399.15" cy="-128" rx="37.89" ry="18"/>
<text text-anchor="middle" x="399.15" y="-124.3" font-family="Times,serif" font-size="14.00">doc_url</text>
</g>
<!-- description&#45;&gt;doc_url -->
<g id="edge13" class="edge">
<title>description&#45;&gt;doc_url</title>
<path fill="none" stroke="black" d="M347.79,-197.21C357.2,-184.71 370.19,-167.45 380.75,-153.43"/>
<polygon fill="black" stroke="black" points="383.74,-155.28 386.96,-145.18 378.15,-151.07 383.74,-155.28"/>
<text text-anchor="middle" x="394.65" y="-167.8" font-family="Times,serif" font-size="14.00">schedbot</text>
</g>
<!-- zoom_link&#45;&gt;gather -->
<g id="edge16" class="edge">
<title>zoom_link&#45;&gt;gather</title>
<path fill="none" stroke="black" d="M415.76,-202.83C408.62,-200.79 401.17,-198.75 394.15,-197 284.52,-169.76 253,-179.59 145.15,-146 143.04,-145.34 140.89,-144.62 138.74,-143.84"/>
<polygon fill="black" stroke="black" points="139.98,-140.57 129.39,-140.22 137.45,-147.1 139.98,-140.57"/>
<text text-anchor="middle" x="316.15" y="-167.8" font-family="Times,serif" font-size="14.00">chad</text>
</g>
<!-- doc_url&#45;&gt;doc -->
<g id="edge14" class="edge">
<title>doc_url&#45;&gt;doc</title>
<path fill="none" stroke="black" d="M421.17,-113.22C438.13,-102.81 462.3,-88.42 484.15,-77 498.44,-69.53 514.64,-61.95 528.39,-55.77"/>
<polygon fill="black" stroke="black" points="530.2,-58.8 537.91,-51.53 527.35,-52.4 530.2,-58.8"/>
<text text-anchor="middle" x="502.65" y="-80.8" font-family="Times,serif" font-size="14.00">docbot</text>
</g>
</g>
</svg>
