<?xml version="1.0" encoding="UTF-8" standalone="no"?>
<!DOCTYPE svg PUBLIC "-//W3C//DTD SVG 1.1//EN"
 "http://www.w3.org/Graphics/SVG/1.1/DTD/svg11.dtd">
<!-- Generated by graphviz version 2.43.0 (0)
 -->
<!-- Title: change_oss Pages: 1 -->
<svg width="279pt" height="321pt"
 viewBox="0.00 0.00 279.00 321.49" xmlns="http://www.w3.org/2000/svg" xmlns:xlink="http://www.w3.org/1999/xlink">
<g id="graph0" class="graph" transform="scale(1 1) rotate(0) translate(4 317.49)">
<title>change_oss</title>
<polygon fill="white" stroke="transparent" points="-4,4 -4,-317.49 275,-317.49 275,4 -4,4"/>
<text text-anchor="middle" x="135.5" y="-22.8" font-family="Times,serif" font-size="14.00">open source software change process</text>
<text text-anchor="middle" x="135.5" y="-7.8" font-family="Times,serif" font-size="14.00">green is funds flow, black is code/data/effort</text>
<g id="clust1" class="cluster">
<title>cluster_0</title>
<polygon fill="none" stroke="black" points="8,-46 8,-138.74 252,-138.74 252,-46 8,-46"/>
<text text-anchor="middle" x="130" y="-123.54" font-family="Times,serif" font-size="14.00">github</text>
</g>
<!-- eco -->
<g id="node1" class="node">
<title>eco</title>
<ellipse fill="none" stroke="black" cx="149" cy="-266.12" rx="47.25" ry="47.25"/>
<text text-anchor="middle" x="149" y="-269.92" font-family="Times,serif" font-size="14.00">global</text>
<text text-anchor="middle" x="149" y="-254.92" font-family="Times,serif" font-size="14.00">economy</text>
</g>
<!-- author -->
<g id="node3" class="node">
<title>author</title>
<ellipse fill="none" stroke="black" cx="48" cy="-164.74" rx="33.29" ry="18"/>
<text text-anchor="middle" x="48" y="-161.04" font-family="Times,serif" font-size="14.00">author</text>
</g>
<!-- eco&#45;&gt;author -->
<g id="edge1" class="edge">
<title>eco&#45;&gt;author</title>
<path fill="none" stroke="green" d="M112.74,-235.57C96.97,-220.84 79.23,-203.26 66.23,-189.43"/>
<polygon fill="green" stroke="green" points="68.52,-186.75 59.17,-181.77 63.37,-191.5 68.52,-186.75"/>
</g>
<!-- contributor -->
<g id="node4" class="node">
<title>contributor</title>
<ellipse fill="none" stroke="black" cx="149" cy="-164.74" rx="50.09" ry="18"/>
<text text-anchor="middle" x="149" y="-161.04" font-family="Times,serif" font-size="14.00">contributor</text>
</g>
<!-- eco&#45;&gt;contributor -->
<g id="edge2" class="edge">
<title>eco&#45;&gt;contributor</title>
<path fill="none" stroke="green" d="M142.27,-219.21C142.18,-210.16 142.4,-200.94 142.92,-192.76"/>
<polygon fill="green" stroke="green" points="146.41,-192.97 143.77,-182.71 139.44,-192.38 146.41,-192.97"/>
</g>
<!-- user -->
<g id="node5" class="node">
<title>user</title>
<ellipse fill="none" stroke="black" cx="244" cy="-164.74" rx="27" ry="18"/>
<text text-anchor="middle" x="244" y="-161.04" font-family="Times,serif" font-size="14.00">user</text>
</g>
<!-- eco&#45;&gt;user -->
<g id="edge3" class="edge">
<title>eco&#45;&gt;user</title>
<path fill="none" stroke="green" d="M177.82,-228.11C191.08,-213.76 206.58,-197.9 219.32,-185.76"/>
<polygon fill="green" stroke="green" points="221.92,-188.12 226.85,-178.74 217.15,-183 221.92,-188.12"/>
</g>
<!-- PR -->
<g id="node2" class="node">
<title>PR</title>
<ellipse fill="none" stroke="black" cx="56" cy="-80.87" rx="39.7" ry="26.74"/>
<text text-anchor="middle" x="56" y="-84.67" font-family="Times,serif" font-size="14.00">pull</text>
<text text-anchor="middle" x="56" y="-69.67" font-family="Times,serif" font-size="14.00">request</text>
</g>
<!-- PR&#45;&gt;author -->
<g id="edge13" class="edge">
<title>PR&#45;&gt;author</title>
<path fill="none" stroke="black" d="M53.45,-107.92C52.57,-116.95 51.58,-127.1 50.69,-136.24"/>
<polygon fill="black" stroke="black" points="47.19,-136.08 49.7,-146.38 54.15,-136.77 47.19,-136.08"/>
</g>
<!-- author&#45;&gt;eco -->
<g id="edge4" class="edge">
<title>author&#45;&gt;eco</title>
<path fill="none" stroke="black" d="M66.87,-179.54C79.55,-190.56 96.48,-206.61 111.73,-221.85"/>
<polygon fill="black" stroke="black" points="109.52,-224.6 119.05,-229.24 114.5,-219.67 109.52,-224.6"/>
</g>
<!-- code -->
<g id="node6" class="node">
<title>code</title>
<ellipse fill="none" stroke="black" cx="141" cy="-80.87" rx="27.1" ry="18"/>
<text text-anchor="middle" x="141" y="-77.17" font-family="Times,serif" font-size="14.00">code</text>
</g>
<!-- author&#45;&gt;code -->
<g id="edge7" class="edge">
<title>author&#45;&gt;code</title>
<path fill="none" stroke="black" d="M73.9,-153.2C87.68,-147.44 102.34,-141.03 105,-138.74 114.94,-130.2 123.08,-118.23 129.09,-107.47"/>
<polygon fill="black" stroke="black" points="132.28,-108.93 133.81,-98.45 126.07,-105.68 132.28,-108.93"/>
</g>
<!-- contributor&#45;&gt;eco -->
<g id="edge5" class="edge">
<title>contributor&#45;&gt;eco</title>
<path fill="none" stroke="black" d="M154.23,-182.71C155.06,-190.22 155.55,-199.51 155.7,-209.13"/>
<polygon fill="black" stroke="black" points="152.2,-209.22 155.73,-219.21 159.2,-209.2 152.2,-209.22"/>
</g>
<!-- contributor&#45;&gt;PR -->
<g id="edge12" class="edge">
<title>contributor&#45;&gt;PR</title>
<path fill="none" stroke="black" d="M121.06,-149.79C115.5,-146.49 109.89,-142.76 105,-138.74 95.98,-131.33 87.28,-122.14 79.77,-113.32"/>
<polygon fill="black" stroke="black" points="82.29,-110.89 73.23,-105.4 76.89,-115.34 82.29,-110.89"/>
</g>
<!-- user&#45;&gt;eco -->
<g id="edge6" class="edge">
<title>user&#45;&gt;eco</title>
<path fill="none" stroke="black" d="M233.86,-181.7C223.54,-194 207.26,-211.54 191.66,-227.37"/>
<polygon fill="black" stroke="black" points="189.14,-224.93 184.57,-234.49 194.1,-229.87 189.14,-224.93"/>
</g>
<!-- issue -->
<g id="node7" class="node">
<title>issue</title>
<ellipse fill="none" stroke="black" cx="215" cy="-80.87" rx="28.7" ry="18"/>
<text text-anchor="middle" x="215" y="-77.17" font-family="Times,serif" font-size="14.00">issue</text>
</g>
<!-- user&#45;&gt;issue -->
<g id="edge10" class="edge">
<title>user&#45;&gt;issue</title>
<path fill="none" stroke="black" d="M237.99,-146.78C234.04,-135.62 228.78,-120.78 224.3,-108.12"/>
<polygon fill="black" stroke="black" points="227.54,-106.79 220.9,-98.53 220.94,-109.13 227.54,-106.79"/>
</g>
<!-- code&#45;&gt;contributor -->
<g id="edge9" class="edge">
<title>code&#45;&gt;contributor</title>
<path fill="none" stroke="black" d="M142.67,-98.93C143.72,-109.68 145.1,-123.82 146.3,-136.14"/>
<polygon fill="black" stroke="black" points="142.85,-136.77 147.3,-146.38 149.81,-136.08 142.85,-136.77"/>
</g>
<!-- code&#45;&gt;user -->
<g id="edge8" class="edge">
<title>code&#45;&gt;user</title>
<path fill="none" stroke="black" d="M147.47,-98.52C153.31,-111.38 163.12,-128.63 177,-138.74 188.5,-147.12 194.62,-141.9 208,-146.74 209.85,-147.41 211.74,-148.14 213.63,-148.91"/>
<polygon fill="black" stroke="black" points="212.4,-152.19 222.96,-152.99 215.2,-145.78 212.4,-152.19"/>
</g>
<!-- issue&#45;&gt;contributor -->
<g id="edge11" class="edge">
<title>issue&#45;&gt;contributor</title>
<path fill="none" stroke="black" d="M205.69,-98.09C198.54,-109.91 188.06,-126.01 177,-138.74 176.4,-139.43 175.78,-140.12 175.15,-140.8"/>
<polygon fill="black" stroke="black" points="172.6,-138.41 168.01,-147.96 177.55,-143.36 172.6,-138.41"/>
</g>
</g>
</svg>
