<?xml version="1.0" encoding="UTF-8" standalone="no"?>
<!DOCTYPE svg PUBLIC "-//W3C//DTD SVG 1.1//EN"
 "http://www.w3.org/Graphics/SVG/1.1/DTD/svg11.dtd">
<!-- Generated by graphviz version 2.43.0 (0)
 -->
<!-- Title: tigers Pages: 1 -->
<svg width="764pt" height="763pt"
 viewBox="0.00 0.00 764.00 763.00" xmlns="http://www.w3.org/2000/svg" xmlns:xlink="http://www.w3.org/1999/xlink">
<g id="graph0" class="graph" transform="scale(1 1) rotate(0) translate(4 759)">
<title>tigers</title>
<polygon fill="white" stroke="transparent" points="-4,4 -4,-759 760,-759 760,4 -4,4"/>
<text text-anchor="middle" x="378" y="-7.8" font-family="Times,serif" font-size="14.00">the tigers we have by the tail</text>
<!-- remote -->
<g id="node1" class="node">
<title>remote</title>
<ellipse fill="none" stroke="black" cx="324" cy="-389" rx="68.79" ry="18"/>
<text text-anchor="middle" x="324" y="-385.3" font-family="Times,serif" font-size="14.00">remote presence</text>
</g>
<!-- self -->
<g id="node7" class="node">
<title>self</title>
<ellipse fill="none" stroke="black" cx="323" cy="-128" rx="51.99" ry="18"/>
<text text-anchor="middle" x="323" y="-124.3" font-family="Times,serif" font-size="14.00">self interest</text>
</g>
<!-- remote&#45;&gt;self -->
<g id="edge20" class="edge">
<title>remote&#45;&gt;self</title>
<path fill="none" stroke="black" d="M323.93,-370.6C323.76,-326.46 323.31,-209.83 323.11,-156.42"/>
<polygon fill="black" stroke="black" points="326.61,-156.31 323.07,-146.32 319.61,-156.33 326.61,-156.31"/>
<text text-anchor="middle" x="362.5" y="-254.8" font-family="Times,serif" font-size="14.00">persists due to</text>
</g>
<!-- technical -->
<g id="node2" class="node">
<title>technical</title>
<ellipse fill="none" stroke="black" cx="285" cy="-650" rx="62.29" ry="18"/>
<text text-anchor="middle" x="285" y="-646.3" font-family="Times,serif" font-size="14.00">technical folks</text>
</g>
<!-- nontechnical -->
<g id="node3" class="node">
<title>nontechnical</title>
<ellipse fill="none" stroke="black" cx="185" cy="-563" rx="75.29" ry="18"/>
<text text-anchor="middle" x="185" y="-559.3" font-family="Times,serif" font-size="14.00">nontechnical folks</text>
</g>
<!-- technical&#45;&gt;nontechnical -->
<g id="edge10" class="edge">
<title>technical&#45;&gt;nontechnical</title>
<path fill="none" stroke="black" d="M230.89,-640.82C186.19,-633.5 128.98,-622.64 122,-614 112.54,-602.29 122.22,-591.57 136.61,-583.09"/>
<polygon fill="black" stroke="black" points="138.32,-586.14 145.51,-578.36 135.04,-579.96 138.32,-586.14"/>
<text text-anchor="middle" x="220.5" y="-602.8" font-family="Times,serif" font-size="14.00">have difficulty communicating with</text>
</g>
<!-- research -->
<g id="node4" class="node">
<title>research</title>
<ellipse fill="none" stroke="black" cx="358" cy="-563" rx="77.19" ry="18"/>
<text text-anchor="middle" x="358" y="-559.3" font-family="Times,serif" font-size="14.00">pandemic research</text>
</g>
<!-- technical&#45;&gt;research -->
<g id="edge9" class="edge">
<title>technical&#45;&gt;research</title>
<path fill="none" stroke="black" d="M304.33,-632.67C310.57,-627.02 317.33,-620.48 323,-614 329.66,-606.39 336.22,-597.5 341.83,-589.34"/>
<polygon fill="black" stroke="black" points="344.84,-591.13 347.5,-580.88 339.03,-587.24 344.84,-591.13"/>
<text text-anchor="middle" x="355.5" y="-602.8" font-family="Times,serif" font-size="14.00">conduct</text>
</g>
<!-- policy -->
<g id="node5" class="node">
<title>policy</title>
<ellipse fill="none" stroke="black" cx="185" cy="-476" rx="69.59" ry="18"/>
<text text-anchor="middle" x="185" y="-472.3" font-family="Times,serif" font-size="14.00">pandemic policy</text>
</g>
<!-- nontechnical&#45;&gt;policy -->
<g id="edge11" class="edge">
<title>nontechnical&#45;&gt;policy</title>
<path fill="none" stroke="black" d="M185,-544.8C185,-533.16 185,-517.55 185,-504.24"/>
<polygon fill="black" stroke="black" points="188.5,-504.18 185,-494.18 181.5,-504.18 188.5,-504.18"/>
<text text-anchor="middle" x="200.5" y="-515.8" font-family="Times,serif" font-size="14.00">make</text>
</g>
<!-- mitigations -->
<g id="node6" class="node">
<title>mitigations</title>
<ellipse fill="none" stroke="black" cx="360" cy="-476" rx="87.99" ry="18"/>
<text text-anchor="middle" x="360" y="-472.3" font-family="Times,serif" font-size="14.00">pandemic mitigations</text>
</g>
<!-- research&#45;&gt;mitigations -->
<g id="edge18" class="edge">
<title>research&#45;&gt;mitigations</title>
<path fill="none" stroke="black" d="M358.4,-544.8C358.68,-533.16 359.05,-517.55 359.36,-504.24"/>
<polygon fill="black" stroke="black" points="362.86,-504.26 359.6,-494.18 355.86,-504.09 362.86,-504.26"/>
<text text-anchor="middle" x="383.5" y="-515.8" font-family="Times,serif" font-size="14.00">indicates</text>
</g>
<!-- policy&#45;&gt;remote -->
<g id="edge12" class="edge">
<title>policy&#45;&gt;remote</title>
<path fill="none" stroke="black" d="M215.22,-459.75C226.33,-453.87 238.9,-446.91 250,-440 259.74,-433.94 261.55,-431.49 271,-425 277.37,-420.62 284.23,-416.02 290.83,-411.64"/>
<polygon fill="black" stroke="black" points="293.18,-414.28 299.6,-405.84 289.33,-408.43 293.18,-414.28"/>
<text text-anchor="middle" x="303" y="-428.8" font-family="Times,serif" font-size="14.00">discourages</text>
</g>
<!-- onsite -->
<g id="node11" class="node">
<title>onsite</title>
<ellipse fill="none" stroke="black" cx="205" cy="-389" rx="31.7" ry="18"/>
<text text-anchor="middle" x="205" y="-385.3" font-family="Times,serif" font-size="14.00">onsite</text>
</g>
<!-- policy&#45;&gt;onsite -->
<g id="edge13" class="edge">
<title>policy&#45;&gt;onsite</title>
<path fill="none" stroke="black" d="M184.91,-457.63C185.23,-447.9 186.24,-435.62 189,-425 189.8,-421.93 190.85,-418.8 192.03,-415.73"/>
<polygon fill="black" stroke="black" points="195.36,-416.87 196.12,-406.3 188.93,-414.08 195.36,-416.87"/>
<text text-anchor="middle" x="219.5" y="-428.8" font-family="Times,serif" font-size="14.00">encourages</text>
</g>
<!-- mitigations&#45;&gt;remote -->
<g id="edge19" class="edge">
<title>mitigations&#45;&gt;remote</title>
<path fill="none" stroke="black" d="M352.71,-457.8C347.69,-445.93 340.91,-429.93 335.2,-416.45"/>
<polygon fill="black" stroke="black" points="338.4,-415.02 331.27,-407.18 331.95,-417.75 338.4,-415.02"/>
<text text-anchor="middle" x="364.5" y="-428.8" font-family="Times,serif" font-size="14.00">spurred</text>
</g>
<!-- X -->
<g id="node8" class="node">
<title>X</title>
<ellipse fill="none" stroke="black" cx="69" cy="-737" rx="27" ry="18"/>
<text text-anchor="middle" x="69" y="-733.3" font-family="Times,serif" font-size="14.00">X</text>
</g>
<!-- X&#45;&gt;remote -->
<g id="edge5" class="edge">
<title>X&#45;&gt;remote</title>
<path fill="none" stroke="black" d="M61.72,-719.42C54.98,-702.55 46,-675.46 46,-651 46,-651 46,-651 46,-475 46,-410.18 121.01,-443.95 183,-425 209.09,-417.03 238.29,-409.54 263.33,-403.56"/>
<polygon fill="black" stroke="black" points="264.14,-406.97 273.06,-401.26 262.53,-400.15 264.14,-406.97"/>
<text text-anchor="middle" x="69" y="-559.3" font-family="Times,serif" font-size="14.00">supports</text>
</g>
<!-- X&#45;&gt;technical -->
<g id="edge6" class="edge">
<title>X&#45;&gt;technical</title>
<path fill="none" stroke="black" d="M91.71,-727.06C126.72,-713.28 194.58,-686.58 239.85,-668.77"/>
<polygon fill="black" stroke="black" points="241.4,-671.92 249.43,-665 238.84,-665.4 241.4,-671.92"/>
<text text-anchor="middle" x="227.5" y="-689.8" font-family="Times,serif" font-size="14.00">optimized for</text>
</g>
<!-- X&#45;&gt;nontechnical -->
<g id="edge7" class="edge">
<title>X&#45;&gt;nontechnical</title>
<path fill="none" stroke="black" d="M70.57,-718.77C73.97,-690.58 84.39,-634.22 115,-599 120.39,-592.8 127.14,-587.57 134.3,-583.21"/>
<polygon fill="black" stroke="black" points="136.46,-586.02 143.53,-578.14 133.08,-579.89 136.46,-586.02"/>
<text text-anchor="middle" x="131.5" y="-646.3" font-family="Times,serif" font-size="14.00">optimized for</text>
</g>
<!-- commons -->
<g id="node10" class="node">
<title>commons</title>
<ellipse fill="none" stroke="black" cx="209" cy="-41" rx="46.29" ry="18"/>
<text text-anchor="middle" x="209" y="-37.3" font-family="Times,serif" font-size="14.00">commons</text>
</g>
<!-- X&#45;&gt;commons -->
<g id="edge8" class="edge">
<title>X&#45;&gt;commons</title>
<path fill="none" stroke="black" d="M50.15,-724.09C29.72,-709.56 0,-682.93 0,-651 0,-651 0,-651 0,-127 0,-60.95 90.67,-45.03 152.57,-41.86"/>
<polygon fill="black" stroke="black" points="152.77,-45.36 162.62,-41.45 152.48,-38.36 152.77,-45.36"/>
<text text-anchor="middle" x="77.5" y="-385.3" font-family="Times,serif" font-size="14.00">is optimized for managing a</text>
</g>
<!-- git -->
<g id="node9" class="node">
<title>git</title>
<ellipse fill="none" stroke="black" cx="465" cy="-737" rx="27" ry="18"/>
<text text-anchor="middle" x="465" y="-733.3" font-family="Times,serif" font-size="14.00">git</text>
</g>
<!-- git&#45;&gt;remote -->
<g id="edge1" class="edge">
<title>git&#45;&gt;remote</title>
<path fill="none" stroke="black" d="M482.6,-723.11C500.93,-708.06 527,-681.32 527,-651 527,-651 527,-651 527,-475 527,-418.68 459.7,-399.04 402.6,-392.51"/>
<polygon fill="black" stroke="black" points="402.75,-389 392.44,-391.47 402.04,-395.97 402.75,-389"/>
<text text-anchor="middle" x="550" y="-559.3" font-family="Times,serif" font-size="14.00">supports</text>
</g>
<!-- git&#45;&gt;technical -->
<g id="edge2" class="edge">
<title>git&#45;&gt;technical</title>
<path fill="none" stroke="black" d="M437.78,-736.01C405.31,-734.7 350.79,-728.19 314,-701 305.94,-695.04 299.76,-686.12 295.21,-677.46"/>
<polygon fill="black" stroke="black" points="298.33,-675.87 290.91,-668.31 292,-678.85 298.33,-675.87"/>
<text text-anchor="middle" x="351.5" y="-689.8" font-family="Times,serif" font-size="14.00">optimized for</text>
</g>
<!-- git&#45;&gt;nontechnical -->
<g id="edge3" class="edge">
<title>git&#45;&gt;nontechnical</title>
<path fill="none" stroke="black" d="M453.33,-720.73C443.22,-707.21 428.44,-686.75 417,-668 398.99,-638.47 409.01,-619.29 381,-599 341.23,-570.2 320.32,-589.71 272,-581 265.28,-579.79 258.28,-578.49 251.3,-577.16"/>
<polygon fill="black" stroke="black" points="251.59,-573.66 241.11,-575.22 250.28,-580.53 251.59,-573.66"/>
<text text-anchor="middle" x="465" y="-646.3" font-family="Times,serif" font-size="14.00">not optimized for</text>
</g>
<!-- git&#45;&gt;commons -->
<g id="edge4" class="edge">
<title>git&#45;&gt;commons</title>
<path fill="none" stroke="black" d="M490.9,-731.83C530.36,-723.85 601,-702.37 601,-651 601,-651 601,-651 601,-127 601,-59.12 373.65,-45.33 265.23,-42.62"/>
<polygon fill="black" stroke="black" points="265.2,-39.11 255.12,-42.39 265.04,-46.11 265.2,-39.11"/>
<text text-anchor="middle" x="678.5" y="-385.3" font-family="Times,serif" font-size="14.00">is optimized for managing a</text>
</g>
<!-- transmission -->
<g id="node12" class="node">
<title>transmission</title>
<ellipse fill="none" stroke="black" cx="207" cy="-302" rx="55.79" ry="18"/>
<text text-anchor="middle" x="207" y="-298.3" font-family="Times,serif" font-size="14.00">transmission</text>
</g>
<!-- onsite&#45;&gt;transmission -->
<g id="edge14" class="edge">
<title>onsite&#45;&gt;transmission</title>
<path fill="none" stroke="black" d="M205.4,-370.8C205.68,-359.16 206.05,-343.55 206.36,-330.24"/>
<polygon fill="black" stroke="black" points="209.86,-330.26 206.6,-320.18 202.86,-330.09 209.86,-330.26"/>
<text text-anchor="middle" x="230" y="-341.8" font-family="Times,serif" font-size="14.00">supports</text>
</g>
<!-- illness -->
<g id="node13" class="node">
<title>illness</title>
<ellipse fill="none" stroke="black" cx="209" cy="-215" rx="33.29" ry="18"/>
<text text-anchor="middle" x="209" y="-211.3" font-family="Times,serif" font-size="14.00">illness</text>
</g>
<!-- transmission&#45;&gt;illness -->
<g id="edge15" class="edge">
<title>transmission&#45;&gt;illness</title>
<path fill="none" stroke="black" d="M207.4,-283.8C207.68,-272.16 208.05,-256.55 208.36,-243.24"/>
<polygon fill="black" stroke="black" points="211.86,-243.26 208.6,-233.18 204.86,-243.09 211.86,-243.26"/>
<text text-anchor="middle" x="227" y="-254.8" font-family="Times,serif" font-size="14.00">causes</text>
</g>
<!-- illness&#45;&gt;self -->
<g id="edge17" class="edge">
<title>illness&#45;&gt;self</title>
<path fill="none" stroke="black" d="M227.42,-199.9C240.62,-189.83 258.85,-176.01 275,-164 280.78,-159.7 286.99,-155.14 292.95,-150.78"/>
<polygon fill="black" stroke="black" points="295.41,-153.32 301.43,-144.6 291.29,-147.66 295.41,-153.32"/>
<text text-anchor="middle" x="292" y="-167.8" font-family="Times,serif" font-size="14.00">harms</text>
</g>
<!-- economy -->
<g id="node14" class="node">
<title>economy</title>
<ellipse fill="none" stroke="black" cx="209" cy="-128" rx="43.59" ry="18"/>
<text text-anchor="middle" x="209" y="-124.3" font-family="Times,serif" font-size="14.00">economy</text>
</g>
<!-- illness&#45;&gt;economy -->
<g id="edge16" class="edge">
<title>illness&#45;&gt;economy</title>
<path fill="none" stroke="black" d="M209,-196.8C209,-185.16 209,-169.55 209,-156.24"/>
<polygon fill="black" stroke="black" points="212.5,-156.18 209,-146.18 205.5,-156.18 212.5,-156.18"/>
<text text-anchor="middle" x="226" y="-167.8" font-family="Times,serif" font-size="14.00">harms</text>
</g>
<!-- economy&#45;&gt;commons -->
<g id="edge21" class="edge">
<title>economy&#45;&gt;commons</title>
<path fill="none" stroke="black" d="M209,-109.8C209,-98.16 209,-82.55 209,-69.24"/>
<polygon fill="black" stroke="black" points="212.5,-69.18 209,-59.18 205.5,-69.18 212.5,-69.18"/>
<text text-anchor="middle" x="218.5" y="-80.8" font-family="Times,serif" font-size="14.00">is a</text>
</g>
</g>
</svg>
